<svg version="1.2" xmlns="http://www.w3.org/2000/svg" viewBox="0 0 18 19" width="18" height="19"><style>.a{fill:#fff}</style><g style="opacity:.48"><path class="a" d="m1.5 5.4l0.5-0.5c-0.3-0.3-0.6-0.9-0.5-1.4 0.1-0.9 0.8-1.4 1.6-1.3 0.4 0 0.8 0.2 1 0.5l0.6-0.4c-0.4-0.5-0.9-0.8-1.5-0.9-1.2-0.1-2.3 0.8-2.5 2-0.1 0.8 0.4 1.6 0.8 2z"/><path class="a" d="m6.4 7.8c-0.3-0.9-0.8-0.9-0.8-0.9h-1.3c0 0.2 0.1 0.5 0.3 0.7q0.2 0.2 0.5 0.2z"/><path class="a" d="m15.2 2.2c0.8-0.1 1.6 0.4 1.7 1.3 0 0.5-0.3 1.1-0.6 1.4l0.5 0.5c0.5-0.4 0.9-1.2 0.8-2-0.1-1.2-1.3-2.1-2.5-2-0.6 0.1-1.1 0.4-1.5 0.9l0.6 0.4c0.3-0.3 0.6-0.5 1-0.5z"/><path class="a" d="m12 7.8h1.2q0.3 0 0.5-0.2c0.2-0.2 0.3-0.5 0.3-0.7h-1.2c0 0-0.6 0-0.8 0.9z"/><path class="a" d="m2.5 6.2h4c0.1 0 0.6 0 1 0.4q0.6 0.7 0.6 2.2v3.1h2.1v-1.1c-0.3 0-0.5-0.2-0.5-0.4q0-0.2 0.2-0.3v-10.1c-0.2 0-0.5 0.1-0.7 0.1v9.2q0.1 0.2 0.1 0.4c0 0.2-0.2 0.4-0.4 0.4-0.3 0-0.5-0.2-0.5-0.4q0-0.2 0.2-0.4v-9.1q-0.4 0-0.7 0.1v4.9q0.1 0.1 0.1 0.3c0 0.3-0.2 0.5-0.4 0.5-0.3 0-0.5-0.2-0.5-0.5q0-0.2 0.2-0.4v-4.6q-0.4 0.2-0.9 0.4v1.4z"/><path class="a" d="m16.8 6.2l-3.9-3.9v-1.4q-0.4-0.2-0.9-0.4v4.4q0.2 0.1 0.2 0.4c0 0.2-0.2 0.4-0.4 0.4-0.3 0-0.5-0.2-0.5-0.4q0-0.2 0.1-0.3v-4.7q-0.3-0.1-0.6-0.1v9.1q0.1 0.2 0.1 0.4c0 0.2-0.2 0.4-0.4 0.4-0.3 0-0.5-0.2-0.5-0.4q0-0.2 0.2-0.4v-9.2c-0.2 0-0.5-0.1-0.7-0.1v10.1q0.1 0.1 0.1 0.3c0 0.2-0.2 0.4-0.4 0.4v1.1h2v-3.1q0-1.5 0.7-2.2c0.4-0.4 0.8-0.4 0.9-0.4z"/><path class="a" d="m11.6 16.4v-0.1c-0.5-0.1-1.9-0.5-2.4-1.2-0.6 0.7-2 1.1-2.5 1.2v0.1c0.2 0.9 1.1 1.7 2.2 1.8v-0.8q-0.2-0.2-0.2-0.4c0-0.2 0.2-0.4 0.5-0.4 0.2 0 0.4 0.2 0.4 0.4q0 0.3-0.1 0.4v0.8c1-0.1 1.9-0.9 2.1-1.8z"/><path class="a" d="m6.5 11.9v-3.1q0-0.1 0-0.2h-1.4q-0.6 0-1-0.5c-0.4-0.4-0.5-0.9-0.5-1.2h-2.3v2.4h2.9q0.1-0.2 0.4-0.2c0.2 0 0.4 0.2 0.4 0.5 0 0.2-0.2 0.4-0.4 0.4q-0.2 0-0.3-0.1h-3v0.9h1.4q0.2-0.2 0.4-0.3c0.3 0 0.5 0.3 0.5 0.5 0 0.3-0.2 0.5-0.5 0.5q-0.1 0-0.3-0.2h-1.4c0.6 1.4 1.6 2.6 2.8 3.5v-0.5-2l1.8-2.5v1.2l-1.1 1.6v0.4h1.6q0.1-0.1 0.3-0.1c0.3 0 0.5 0.2 0.5 0.4 0 0.2-0.2 0.4-0.5 0.4q-0.2 0-0.3-0.1h-1.6v0.7h2.1q0.1-0.2 0.3-0.2c0.2 0 0.4 0.2 0.4 0.5 0 0.2-0.2 0.4-0.4 0.4q-0.2 0-0.3-0.1h-2.1v0.3q0.4 0.3 0.9 0.5h0.8c1.1-0.3 2.1-0.9 2.1-1.1v-0.8z"/><path class="a" d="m11.8 11.9v-3.1q0-0.1 0-0.2h1.4q0.6 0 1.1-0.5c0.3-0.4 0.4-0.9 0.5-1.2h2.2v2.4h-2.9q-0.1-0.2-0.4-0.2c-0.2 0-0.4 0.2-0.4 0.5 0 0.2 0.2 0.4 0.4 0.4q0.2 0 0.3-0.1h3v0.9h-1.4q-0.2-0.2-0.4-0.3c-0.3 0-0.5 0.3-0.5 0.5 0 0.3 0.2 0.5 0.5 0.5q0.2 0 0.3-0.2h1.5c-0.6 1.4-1.7 2.6-2.9 3.5v-0.5-2l-1.8-2.5v1.2l1.1 1.6v0.4h-1.6q-0.1-0.1-0.3-0.1c-0.3 0-0.4 0.2-0.4 0.4 0 0.2 0.1 0.4 0.4 0.4q0.2 0 0.3-0.1h1.6v0.7h-2q-0.2-0.2-0.3-0.2c-0.3 0-0.5 0.2-0.5 0.5 0 0.2 0.2 0.4 0.5 0.4q0.1 0 0.3-0.1h2v0.3q-0.4 0.3-0.9 0.5h-0.8c-1.1-0.3-2.1-0.9-2.1-1.1v-0.8z"/></g></svg>