<svg version="1.2" xmlns="http://www.w3.org/2000/svg" viewBox="0 0 111 37" width="111" height="37"><style>.a{fill:#fff}.b{fill:#F36432}</style><path fill-rule="evenodd" class="a" d="m49.7 7.9q0.7 0 1.4 0.3 0.7 0.3 1.4 0.8 0.7 0.5 1.1 1.3 0.3 0.8 0.3 1.9v12.6q0 2.2-1.4 3.2-0.7 0.5-1.4 0.8-0.7 0.3-1.4 0.3h-5.9q-0.6 0-1.4-0.3-0.7-0.3-1.4-0.8-0.7-0.5-1.1-1.3-0.3-0.8-0.3-1.9v-12.6q0-1.1 0.3-1.9 0.4-0.8 1.1-1.3 0.7-0.5 1.4-0.8 0.8-0.3 1.4-0.3zm-0.6 18.5q1 0 1.4-0.5 0.4-0.6 0.4-1.3v-12.2q0-0.7-0.4-1.2-0.4-0.6-1.4-0.6h-4.5q-1 0-1.4 0.6-0.4 0.5-0.4 1.2v12.2q0 0.7 0.4 1.3 0.4 0.5 1.4 0.5z"/><path class="a" d="m69 9.1q0-1.3 1.6-1.3 1.5 0 1.5 1.3v18.4q0 0.9-0.9 1.3-0.4 0.2-0.9 0.3-0.5 0.1-1 0.1-0.3 0-0.7-0.1-0.3 0-0.7-0.2-0.3-0.1-0.6-0.4-0.3-0.2-0.4-0.6l-5.8-14.4-0.7 0.1v14.4q0 1.2-1.6 1.2-1.6 0-1.6-1.2v-18.4q0-1.1 1-1.5 0.8-0.3 1.8-0.3 0.7 0 1.4 0.3 0.7 0.2 1.1 1l5.8 14.5 0.7-0.1z"/><path class="a" d="m89.8 24.8q0 2.2-1.5 3.2-0.7 0.5-1.4 0.8-0.7 0.3-1.4 0.3h-5.8q-0.7 0-1.5-0.3-0.7-0.3-1.4-0.8-0.7-0.5-1-1.3-0.4-0.8-0.4-1.9v-12.6q0-1.1 0.4-1.9 0.3-0.8 1-1.3 0.7-0.5 1.4-0.8 0.8-0.3 1.5-0.3h5.8q0.7 0 1.4 0.3 0.8 0.3 1.5 0.8h-0.1q0.7 0.5 1.1 1.3 0.4 0.8 0.4 1.9v1.8q0 1.3-1.6 1.3-1.6 0-1.6-1.3v-1.6q0-0.7-0.4-1.2-0.4-0.6-1.4-0.6h-4.5q-0.9 0-1.3 0.6-0.4 0.5-0.4 1.2v12.2q0 0.7 0.4 1.3 0.4 0.5 1.3 0.5h4.5q1 0 1.4-0.5 0.4-0.6 0.4-1.3v-1.5q0-1.3 1.6-1.3 1.6 0 1.6 1.3z"/><path fill-rule="evenodd" class="a" d="m99.7 10.5l-5.8 17.9q-0.2 0.4-0.5 0.7-0.2 0.2-0.6 0.2-0.2 0-0.4 0-0.2-0.1-0.5-0.1h0.1q-1.6-0.5-1.2-1.7l6.1-18.5q0.2-0.4 0.5-0.7 0.3-0.3 0.8-0.4 0.4 0 0.9-0.1 0.4 0 0.6 0 0.3 0 0.7 0 0.4 0.1 0.9 0.1 0.3 0.1 0.7 0.4 0.4 0.4 0.5 0.7 1.5 4.6 3.1 9.2 1.5 4.7 3 9.3 0.4 1.2-1.1 1.7-0.2 0-0.4 0.1-0.2 0-0.4 0-0.4 0-0.7-0.2-0.3-0.3-0.4-0.7zm2 12.2q0 0.8-0.6 1.4-0.6 0.6-1.5 0.6-0.8 0-1.4-0.6-0.6-0.6-0.6-1.4 0-0.9 0.6-1.5 0.6-0.6 1.4-0.6 0.9 0 1.5 0.6 0.6 0.6 0.6 1.5z"/><path class="a" d="m106.4 8.5q0 0.2-0.2 0.4-0.1 0.2-0.4 0.2-0.2 0-0.4-0.2-0.1-0.2-0.1-0.4 0-0.2 0.1-0.4 0.2-0.1 0.4-0.1 0.3 0 0.4 0.1 0.2 0.2 0.2 0.4zm-0.2 4.9q0 0.4-0.4 0.4-0.4 0-0.4-0.4v-3.7q0-0.3 0.4-0.3 0.4 0 0.4 0.3z"/><path class="a" d="m109.2 13.4q0 0.4-0.5 0.4-0.4 0-0.4-0.4v-4.6h-1.2q-0.3 0-0.3-0.4 0-0.3 0.3-0.3h3.3q0.3 0 0.3 0.3 0 0.4-0.3 0.4h-1.2z"/><path class="b" d="m36.3 18.5c0 9.8-7.9 17.7-17.7 17.7-9.7 0-17.7-7.9-17.7-17.7 0-9.8 8-17.7 17.7-17.7 9.8 0 17.7 7.9 17.7 17.7z"/><path class="a" d="m7.4 13l0.8-0.7c-0.5-0.5-1-1.4-0.9-2.1 0.2-1.2 1.3-2 2.5-1.9 0.6 0.1 1.1 0.4 1.4 0.8l0.9-0.6c-0.6-0.7-1.3-1.2-2.2-1.3-1.8-0.2-3.4 1.1-3.7 2.9-0.1 1.1 0.6 2.3 1.2 2.9z"/><path class="a" d="m14.5 16.6c-0.3-1.4-1.1-1.4-1.2-1.4h-1.8c0 0.4 0.2 0.8 0.4 1.1q0.3 0.3 0.8 0.3z"/><path class="a" d="m27.5 8.3c1.2-0.1 2.3 0.7 2.5 1.9 0 0.7-0.4 1.6-0.9 2.1l0.8 0.7c0.6-0.6 1.3-1.8 1.1-2.9-0.2-1.8-1.8-3.1-3.6-2.9-0.9 0.1-1.7 0.6-2.2 1.3l0.8 0.6c0.4-0.4 0.9-0.7 1.5-0.8z"/><path class="a" d="m22.7 16.6h1.9q0.5 0 0.7-0.3c0.3-0.3 0.4-0.7 0.5-1.1h-1.9c0 0-0.8 0-1.2 1.4z"/><path class="a" d="m7.4 14.2h5.9c0.1 0 0.8 0 1.3 0.6q1.1 1 1.1 3.2v4.6h2.9v-1.6c-0.3 0-0.6-0.3-0.6-0.6q0-0.3 0.2-0.5v-14.7c-0.3 0-0.7 0-1 0v13.6q0.2 0.2 0.2 0.5c0 0.4-0.3 0.6-0.7 0.6-0.3 0-0.6-0.2-0.6-0.6q0-0.3 0.2-0.5v-13.4q-0.5 0.1-1 0.2v7.1q0.2 0.2 0.2 0.5c0 0.4-0.3 0.7-0.7 0.7-0.3 0-0.6-0.3-0.6-0.7 0-0.2 0.1-0.4 0.2-0.5v-6.8q-0.6 0.2-1.2 0.5v2.1z"/><path class="a" d="m29.9 14.2l-5.8-5.7v-2.1q-0.6-0.3-1.2-0.5v6.4c0.1 0.1 0.3 0.4 0.3 0.6 0 0.4-0.3 0.7-0.7 0.7-0.4 0-0.7-0.3-0.7-0.7q0-0.3 0.2-0.5v-6.8q-0.5-0.1-1-0.2v13.4q0.2 0.2 0.2 0.5c0 0.4-0.3 0.6-0.7 0.6-0.3 0-0.6-0.2-0.6-0.6q0-0.3 0.2-0.5v-13.6c-0.3 0-0.7 0-1 0v14.7q0.2 0.2 0.2 0.5c0 0.3-0.3 0.6-0.7 0.6v1.6h3v-4.6q0-2.2 1-3.2c0.6-0.6 1.2-0.6 1.4-0.6z"/><path class="a" d="m22.3 29.1h-0.1c-0.7-0.2-2.8-0.8-3.6-1.8-0.8 1-2.8 1.6-3.5 1.8h-0.1c0.3 1.5 1.7 2.6 3.2 2.8v-1.3q-0.2-0.2-0.2-0.5c0-0.3 0.3-0.6 0.7-0.6 0.3 0 0.6 0.3 0.6 0.6 0 0.3-0.1 0.4-0.2 0.6v1.2c1.5-0.2 2.8-1.3 3.2-2.8z"/><path class="a" d="m14.7 22.6v-4.6q0-0.1 0-0.3h-2c-0.6 0-1.2-0.2-1.6-0.7-0.5-0.5-0.6-1.3-0.7-1.8h-3.3v3.6h4.2c0.2-0.2 0.4-0.3 0.6-0.3 0.4 0 0.7 0.3 0.7 0.6 0 0.4-0.3 0.7-0.7 0.7q-0.3 0-0.5-0.2h-4.3v1.3h2.1c0.1-0.2 0.3-0.3 0.6-0.3 0.3 0 0.6 0.3 0.6 0.7 0 0.3-0.3 0.6-0.6 0.6q-0.3 0-0.5-0.1h-2.1c0.8 2 2.4 3.8 4.2 5.1v-0.8-2.9l2.6-3.7v1.7l-1.7 2.4v0.6h2.4q0.2-0.2 0.5-0.2c0.4 0 0.6 0.3 0.6 0.7 0 0.3-0.2 0.6-0.6 0.6q-0.3 0-0.5-0.2h-2.4v1h3.1q0.2-0.2 0.4-0.2c0.4 0 0.7 0.2 0.7 0.6 0 0.3-0.3 0.6-0.7 0.6q-0.2 0-0.4-0.2h-3.1v0.6q0.7 0.3 1.4 0.7h1.2c1.6-0.5 3.1-1.3 3.1-1.7v-1.2z"/><path class="a" d="m22.6 22.6v-4.6q0-0.1 0-0.3h1.9c0.7 0 1.2-0.2 1.6-0.7 0.5-0.5 0.7-1.3 0.7-1.8h3.3v3.6h-4.2c-0.1-0.2-0.3-0.3-0.5-0.3-0.4 0-0.7 0.3-0.7 0.6 0 0.4 0.3 0.7 0.7 0.7q0.2 0 0.4-0.2h4.3v1.3h-2.1c-0.1-0.2-0.3-0.3-0.5-0.3-0.4 0-0.7 0.3-0.7 0.7 0 0.3 0.3 0.6 0.7 0.6q0.2 0 0.4-0.1h2.2c-0.9 2-2.4 3.8-4.3 5.1v-0.8-2.9l-2.6-3.7v1.7l1.7 2.4v0.6h-2.4q-0.2-0.2-0.5-0.2c-0.3 0-0.6 0.3-0.6 0.7 0 0.3 0.3 0.6 0.6 0.6q0.3 0 0.5-0.2h2.4v1h-3q-0.2-0.2-0.5-0.2c-0.4 0-0.6 0.2-0.6 0.6 0 0.3 0.2 0.6 0.6 0.6q0.3 0 0.5-0.2h3v0.6q-0.7 0.3-1.4 0.7h-1.1c-1.7-0.5-3.2-1.3-3.2-1.7v-1.2z"/></svg>