<svg version="1.2" xmlns="http://www.w3.org/2000/svg" viewBox="0 0 25 25" width="25" height="25"><style>.a{fill:#F36432}.b{fill:#fff}</style><g style="opacity:.48"><path class="a" d="m24.5 12.8c0 6.6-5.4 12-12.1 12-6.7 0-12.1-5.4-12.1-12 0-6.7 5.4-12.1 12.1-12.1 6.7 0 12.1 5.4 12.1 12.1z"/><path class="b" d="m4.8 9l0.5-0.5c-0.4-0.3-0.7-0.9-0.6-1.4 0.1-0.8 0.8-1.4 1.7-1.3 0.4 0 0.7 0.2 0.9 0.6l0.6-0.5c-0.3-0.5-0.9-0.8-1.5-0.8-1.2-0.2-2.3 0.7-2.4 1.9-0.1 0.8 0.3 1.6 0.8 2z"/><path class="b" d="m9.6 11.5c-0.2-1-0.8-1-0.8-1h-1.3c0.1 0.2 0.1 0.6 0.3 0.7q0.2 0.3 0.6 0.3z"/><path class="b" d="m18.4 5.8c0.8-0.1 1.6 0.5 1.7 1.3 0.1 0.5-0.2 1.1-0.6 1.4l0.5 0.5c0.5-0.4 0.9-1.2 0.8-2-0.1-1.2-1.2-2.1-2.5-1.9-0.6 0-1.1 0.3-1.4 0.8l0.5 0.5c0.3-0.4 0.6-0.6 1-0.6z"/><path class="b" d="m15.2 11.5h1.2q0.4 0 0.6-0.3c0.1-0.1 0.2-0.5 0.3-0.7h-1.3c0 0-0.6 0-0.8 1z"/><path class="b" d="m4.7 9.8h4.1c0.1 0 0.5 0 0.9 0.4q0.7 0.7 0.7 2.2v3.1h2v-1c-0.2 0-0.4-0.2-0.4-0.5q0-0.2 0.1-0.3v-10c-0.2 0-0.5 0-0.7 0v9.3q0.1 0.1 0.1 0.3c0 0.2-0.2 0.4-0.4 0.4-0.2 0-0.4-0.2-0.4-0.4q0-0.2 0.1-0.3v-9.2q-0.3 0.1-0.7 0.2v4.8q0.1 0.1 0.2 0.3c0 0.3-0.3 0.5-0.5 0.5-0.3 0-0.5-0.2-0.5-0.5q0-0.2 0.2-0.3v-4.7q-0.4 0.2-0.8 0.4v1.4z"/><path class="b" d="m20 9.8l-3.9-3.9v-1.4q-0.4-0.2-0.8-0.4v4.4q0.2 0.2 0.2 0.4c0 0.3-0.2 0.5-0.5 0.5-0.2 0-0.4-0.2-0.4-0.5q0-0.2 0.1-0.3v-4.6q-0.4-0.1-0.7-0.2v9.2q0.1 0.1 0.1 0.3c0 0.2-0.2 0.4-0.4 0.4-0.3 0-0.4-0.2-0.4-0.4q0-0.2 0.1-0.3v-9.3c-0.2 0-0.5 0-0.7 0v10q0.1 0.1 0.1 0.3c0 0.3-0.2 0.5-0.4 0.5v1h2v-3.1q0-1.5 0.7-2.2c0.4-0.4 0.8-0.4 0.9-0.4z"/><path class="b" d="m14.9 20h-0.1c-0.5-0.2-1.9-0.6-2.4-1.2-0.6 0.6-1.9 1-2.4 1.2h-0.1c0.2 1 1.2 1.7 2.2 1.8v-0.8q-0.1-0.1-0.1-0.3c0-0.3 0.2-0.5 0.4-0.5 0.3 0 0.5 0.2 0.5 0.5q0 0.2-0.2 0.3v0.8c1-0.1 1.9-0.8 2.2-1.8z"/><path class="b" d="m9.7 15.5v-3.1q0-0.1 0-0.2h-1.3q-0.7 0-1.1-0.5c-0.4-0.3-0.5-0.8-0.5-1.2h-2.3v2.4h2.9q0.2-0.2 0.4-0.2c0.2 0 0.5 0.2 0.5 0.5 0 0.2-0.3 0.4-0.5 0.4q-0.2 0-0.3-0.1h-3v0.9h1.5q0.1-0.2 0.4-0.2c0.2 0 0.4 0.2 0.4 0.4 0 0.3-0.2 0.5-0.4 0.5q-0.2 0-0.3-0.1h-1.5c0.6 1.4 1.6 2.6 2.9 3.4v-0.5-2l1.8-2.5v1.2l-1.2 1.6v0.4h1.6q0.2-0.1 0.4-0.1c0.2 0 0.4 0.2 0.4 0.4 0 0.3-0.2 0.5-0.4 0.5q-0.2 0-0.4-0.2h-1.6v0.7h2.1q0.1-0.1 0.3-0.1c0.2 0 0.4 0.1 0.4 0.4 0 0.2-0.2 0.4-0.4 0.4q-0.2 0-0.3-0.1h-2.1v0.3q0.5 0.3 1 0.5h0.7c1.2-0.3 2.2-0.8 2.2-1.1v-0.8z"/><path class="b" d="m15.1 15.5v-3.1q0-0.1 0-0.2h1.3q0.7 0 1.1-0.5c0.3-0.3 0.5-0.8 0.5-1.2h2.2v2.4h-2.8q-0.2-0.2-0.4-0.2c-0.3 0-0.5 0.2-0.5 0.5 0 0.2 0.2 0.4 0.5 0.4q0.1 0 0.3-0.1h2.9v0.9h-1.4q-0.1-0.2-0.4-0.2c-0.2 0-0.4 0.2-0.4 0.4 0 0.3 0.2 0.5 0.4 0.5q0.2 0 0.3-0.1h1.5c-0.6 1.4-1.6 2.6-2.9 3.4v-0.5-2l-1.8-2.5v1.2l1.2 1.6v0.4h-1.7q-0.1-0.1-0.3-0.1c-0.2 0-0.4 0.2-0.4 0.4 0 0.3 0.2 0.5 0.4 0.5q0.2 0 0.3-0.2h1.7v0.7h-2.1q-0.1-0.1-0.3-0.1c-0.3 0-0.5 0.1-0.5 0.4 0 0.2 0.2 0.4 0.5 0.4q0.2 0 0.3-0.1h2.1v0.3q-0.5 0.3-1 0.5h-0.8c-1.1-0.3-2.1-0.8-2.1-1.1v-0.8z"/></g></svg>