<svg version="1.2" xmlns="http://www.w3.org/2000/svg" viewBox="0 0 115 38" width="115" height="38"><style>.a{fill:#005094}.b{fill-opacity:.97;fill:#ed6824}.c{fill:#fff}</style><path fill-rule="evenodd" class="a" d="m50.5 9.7q0.7 0 1.5 0.3 0.8 0.4 1.5 0.8 0.7 0.6 1.1 1.4 0.4 0.9 0.4 2v13.3q0 2.2-1.5 3.3-0.7 0.6-1.5 0.9-0.8 0.3-1.5 0.3h-6.1q-0.7 0-1.5-0.3-0.8-0.3-1.5-0.9-0.7-0.5-1.1-1.3-0.4-0.9-0.4-2v-13.3q0-1.1 0.4-2 0.4-0.8 1.1-1.4 0.7-0.4 1.5-0.8 0.8-0.3 1.5-0.3zm-0.7 19.4q1 0 1.4-0.6 0.5-0.5 0.5-1.3v-12.8q0-0.7-0.5-1.3-0.4-0.5-1.4-0.5h-4.7q-1 0-1.5 0.5-0.4 0.6-0.4 1.3v12.8q0 0.8 0.4 1.3 0.5 0.6 1.5 0.6z"/><path class="a" d="m70.8 10.9q0-1.3 1.6-1.3 1.7 0 1.7 1.3v19.3q0 1-1.1 1.5h0.1q-0.5 0.1-1 0.3-0.5 0.1-1 0.1-0.3 0-0.7-0.1-0.4-0.1-0.8-0.2-0.3-0.2-0.6-0.4-0.3-0.3-0.5-0.7l-6-15.1-0.8 0.1v15.1q0 1.3-1.7 1.3-1.6 0-1.6-1.3v-19.3q0-1.1 1-1.5 0.9-0.4 2-0.4 0.7 0 1.4 0.3 0.8 0.3 1.2 1.1l6 15.1h0.8z"/><path class="a" d="m92.6 27.5q0 2.2-1.6 3.3-0.7 0.6-1.4 0.9-0.8 0.3-1.5 0.3h-6.1q-0.8 0-1.5-0.3-0.8-0.3-1.5-0.9-0.8-0.5-1.1-1.3-0.4-0.9-0.4-2v-13.3q0-1.1 0.4-2 0.3-0.8 1.1-1.4h-0.1q0.8-0.4 1.6-0.8 0.7-0.3 1.5-0.3h6.1q0.7 0 1.5 0.3 0.7 0.4 1.5 0.8h-0.1q0.8 0.6 1.2 1.4 0.4 0.9 0.4 2v1.9q0 1.4-1.7 1.4-1.7 0-1.7-1.4v-1.7q0-0.7-0.4-1.3-0.4-0.5-1.4-0.5h-4.7q-1.1 0-1.5 0.5-0.4 0.6-0.4 1.3v12.8q0 0.8 0.4 1.3 0.4 0.6 1.5 0.6h4.7q1 0 1.4-0.6 0.4-0.5 0.4-1.3v-1.6q0-1.3 1.7-1.3 1.7 0 1.7 1.3z"/><path fill-rule="evenodd" class="a" d="m103 12.5l-6.1 18.8v-0.1q-0.2 0.5-0.5 0.7-0.3 0.3-0.7 0.3-0.2 0-0.4-0.1-0.2 0-0.5-0.1h0.1q-1.6-0.5-1.2-1.7l6.4-19.4q0.1-0.5 0.4-0.8 0.4-0.3 0.9-0.3 0.4-0.1 0.9-0.2 0.4 0 0.7 0 0.2 0 0.7 0 0.4 0.1 0.9 0.1 0.4 0.1 0.8 0.5 0.4 0.3 0.6 0.7 1.5 4.8 3.1 9.7 1.6 4.8 3.2 9.7 0.4 1.2-1.2 1.7-0.2 0.1-0.4 0.1-0.2 0.1-0.4 0.1-0.4 0-0.7-0.3-0.3-0.2-0.5-0.7v0.1zm2.1 12.7q0 0.9-0.6 1.5-0.6 0.7-1.5 0.7-0.9 0-1.5-0.7-0.6-0.6-0.6-1.5 0-0.9 0.6-1.5 0.6-0.6 1.5-0.6 0.9 0 1.5 0.6 0.6 0.6 0.6 1.5z"/><path class="a" d="m110 10.4q0 0.2-0.2 0.4-0.2 0.1-0.4 0.1-0.2 0-0.4-0.1-0.2-0.2-0.2-0.4 0-0.3 0.2-0.4 0.2-0.2 0.4-0.2 0.2 0 0.4 0.2 0.2 0.1 0.2 0.4zm-0.2 5.1q0 0.4-0.4 0.4-0.4 0-0.4-0.4v-3.8q0-0.4 0.4-0.4 0.4 0 0.4 0.4z"/><path class="a" d="m112.9 15.5q0 0.4-0.4 0.4-0.5 0-0.5-0.4v-4.8h-1.3q-0.3 0-0.3-0.4 0-0.4 0.3-0.4h3.5q0.3 0 0.3 0.4 0 0.4-0.3 0.4h-1.3z"/><path class="b" d="m37.5 18.9c0 10.2-8.3 18.5-18.5 18.5-10.3 0-18.6-8.3-18.6-18.5 0-10.3 8.3-18.6 18.6-18.6 10.2 0 18.5 8.3 18.5 18.6z"/><path class="c" d="m6.2 15.1l0.8-0.8c-0.5-0.5-1-1.4-0.9-2.2 0.1-1.2 1.3-2.1 2.6-2 0.6 0.1 1.1 0.4 1.5 0.9l0.9-0.7c-0.6-0.7-1.4-1.2-2.3-1.3-1.9-0.2-3.6 1.1-3.8 3-0.2 1.2 0.5 2.5 1.2 3.1z"/><path class="c" d="m13.7 18.9c-0.4-1.5-1.3-1.5-1.3-1.5h-1.9c0 0.4 0.1 0.8 0.4 1.1q0.3 0.4 0.9 0.4z"/><path class="c" d="m27.2 10.1c1.3-0.1 2.5 0.8 2.6 2 0.1 0.8-0.4 1.7-0.9 2.2l0.8 0.8c0.7-0.6 1.4-1.9 1.2-3.1-0.2-1.9-1.9-3.2-3.8-3-0.9 0.1-1.7 0.6-2.3 1.3l0.9 0.7c0.4-0.5 0.9-0.8 1.5-0.9z"/><path class="c" d="m22.3 18.9h1.9q0.5 0 0.8-0.4c0.3-0.3 0.4-0.7 0.4-1.1h-1.9c0 0-0.9 0-1.2 1.5z"/><path class="c" d="m6.2 16.3h6.2c0.1 0 0.8 0.1 1.4 0.7q1 1 1 3.4v4.7h3.2v-1.6c-0.4 0-0.7-0.3-0.7-0.7q0-0.3 0.2-0.5v-15.4c-0.3 0-0.8 0-1.1 0v14.3q0.2 0.2 0.2 0.5c0 0.3-0.3 0.6-0.6 0.6-0.4 0-0.7-0.3-0.7-0.6q0-0.3 0.2-0.5v-14.1q-0.5 0.1-1.1 0.2v7.5q0.2 0.2 0.3 0.5c0 0.4-0.4 0.7-0.7 0.7-0.4 0-0.7-0.3-0.7-0.7 0-0.3 0.1-0.5 0.2-0.6v-7.1q-0.6 0.2-1.3 0.6v2.1z"/><path class="c" d="m29.7 16.3l-6-6v-2.1q-0.6-0.4-1.3-0.6v6.8c0.2 0.1 0.3 0.3 0.3 0.5 0 0.4-0.3 0.7-0.7 0.7-0.4 0-0.7-0.3-0.7-0.7q0-0.2 0.2-0.4v-7.2q-0.6-0.1-1.1-0.2v14.1q0.2 0.2 0.2 0.5c0 0.3-0.3 0.6-0.7 0.6-0.3 0-0.6-0.3-0.6-0.6q0-0.3 0.2-0.5v-14.3c-0.3 0-0.8 0-1.1 0v15.4q0.2 0.2 0.2 0.5c0 0.4-0.3 0.7-0.6 0.7v1.6h3.1v-4.7q0-2.4 1-3.4c0.7-0.6 1.3-0.7 1.4-0.7z"/><path class="c" d="m21.7 32c-0.8-0.2-2.9-0.9-3.7-1.9-0.9 1-3 1.7-3.8 1.9 0.3 1.5 1.7 2.7 3.3 2.9v-1.4q-0.2-0.2-0.2-0.5c0-0.3 0.3-0.7 0.7-0.7 0.4 0 0.7 0.4 0.7 0.7 0 0.3-0.1 0.5-0.3 0.6v1.3c1.6-0.2 3-1.4 3.4-2.9z"/><path class="c" d="m13.8 25.1v-4.7q0-0.2 0-0.4h-2c-0.7 0-1.3-0.2-1.7-0.7-0.6-0.6-0.7-1.4-0.8-1.9h-3.4v3.7h4.4c0.1-0.2 0.3-0.3 0.6-0.3 0.4 0 0.7 0.3 0.7 0.7 0 0.4-0.3 0.7-0.7 0.7q-0.3 0-0.5-0.2h-4.5v1.4h2.2c0.1-0.2 0.3-0.4 0.6-0.4 0.3 0 0.7 0.4 0.7 0.7 0 0.4-0.4 0.7-0.7 0.7q-0.3 0-0.5-0.1h-2.3c0.9 2.1 2.5 4 4.5 5.3v-0.8-3l2.7-3.9v1.8l-1.8 2.5v0.6h2.6q0.2-0.2 0.5-0.2c0.3 0 0.6 0.3 0.6 0.7 0 0.4-0.3 0.7-0.6 0.7q-0.3-0.1-0.5-0.3h-2.6v1.1h3.2q0.2-0.2 0.5-0.2c0.4 0 0.7 0.2 0.7 0.6 0 0.4-0.3 0.7-0.7 0.7q-0.3 0-0.5-0.2h-3.2v0.5q0.8 0.4 1.5 0.8h1.2c1.7-0.5 3.3-1.3 3.3-1.8v-1.2z"/><path class="c" d="m22.1 25.1v-4.7q0-0.2 0-0.4h2c0.7 0 1.3-0.2 1.7-0.7 0.5-0.6 0.7-1.4 0.8-1.9h3.4v3.7h-4.4c-0.1-0.2-0.4-0.3-0.6-0.3-0.4 0-0.7 0.3-0.7 0.7 0 0.4 0.3 0.7 0.7 0.7q0.3 0 0.5-0.2h4.5v1.4h-2.2c-0.1-0.2-0.3-0.4-0.6-0.4-0.4 0-0.7 0.4-0.7 0.7 0 0.4 0.3 0.7 0.7 0.7q0.3 0 0.5-0.1h2.2c-0.9 2.1-2.4 4-4.4 5.3v-0.8-3l-2.7-3.9v1.8l1.7 2.5v0.6h-2.5q-0.2-0.2-0.5-0.2c-0.3 0-0.6 0.3-0.6 0.7 0 0.4 0.3 0.7 0.6 0.7q0.3-0.1 0.5-0.3h2.5v1.1h-3.2q-0.2-0.2-0.4-0.2c-0.4 0-0.7 0.2-0.7 0.6 0 0.4 0.3 0.7 0.7 0.7q0.2 0 0.4-0.2h3.2v0.5q-0.7 0.4-1.4 0.8h-1.2c-1.8-0.5-3.3-1.3-3.3-1.8v-1.2z"/></svg>